<svg class="Header_LogoType__2z0lY" id="header-logo-wordmark" viewBox="0 0 179.62 19.64"
  xmlns="http://www.w3.org/2000/svg" aria-hidden="false">
  <title>SoundCloud wishes peace and safety for our community in Ukraine</title>
  <path fill="currentColor"
    d="M20.19 1.89c-.44 5.86-.78 11.35 0 17.2a.53.53 0 0 0 1 0c.84-5.9.49-11.29 0-17.21a.53.53 0 1 0-1 .01ZM16.87 3.91a66.43 66.43 0 0 0 0 15.18.55.55 0 0 0 1.09 0A59.33 59.33 0 0 0 18 3.91a.55.55 0 0 0-1.13 0ZM13.62 3.4a65.28 65.28 0 0 0 0 15.68.53.53 0 0 0 1 0 63.29 63.29 0 0 0 0-15.68.53.53 0 0 0-1 0ZM10.33 4.93a55.54 55.54 0 0 0 0 14.17.54.54 0 0 0 1.07 0 51.73 51.73 0 0 0 0-14.17.55.55 0 0 0-1.07 0ZM7 8.45c-.78 3.65-.41 7 0 10.67a.51.51 0 0 0 1 0c.48-3.72.86-7 0-10.67a.54.54 0 0 0-1 0ZM3.72 7.91a33.08 33.08 0 0 0 0 10.74c0 .56 1 .55 1.07 0a30 30 0 0 0 0-10.74.56.56 0 0 0-1.07 0ZM.41 9.72a15 15 0 0 0 0 7.08.52.52 0 0 0 1 0 12.54 12.54 0 0 0 0-7.08.56.56 0 0 0-1 0ZM23.26 13.05l5.23-4.84V0a10 10 0 0 0-5.22 2ZM30.22 10.46v7.47a10.09 10.09 0 0 0 5.61-2.27ZM39.08 9c0-4.7-3.9-8.56-8.86-9v8.2L37 14.49A8.53 8.53 0 0 0 39.08 9Z"></path>
  <path fill="currentColor"
    d="M41.07 6.61a5.09 5.09 0 0 0-.55 0A9.89 9.89 0 0 1 40.81 9a10.06 10.06 0 0 1-1.76 5.64 11.37 11.37 0 0 1-4.61 3.86 12.13 12.13 0 0 1-2.34.78c-.81.18-2.34.27-3.16.38h4.32c1.19 0 2.48-.06 3.72-.06h3.83a6.65 6.65 0 0 0 6.73-6.28 6.47 6.47 0 0 0-6.47-6.71ZM23.26 16.08a12.57 12.57 0 0 0 5.23 1.84v-7.45l-5.23 4.84ZM61.6 15.45a5.38 5.38 0 0 1-4.6-2.27l1.71-1.6a3.74 3.74 0 0 0 3 1.42c1.4 0 2.06-.41 2.06-1.35s-.4-1.16-2.63-1.69-3.71-1.27-3.71-3.72c0-2.27 1.9-3.66 4.23-3.66a5.53 5.53 0 0 1 4.31 2l-1.69 1.71A3.51 3.51 0 0 0 61.6 5c-1.27 0-1.69.57-1.69 1.12 0 .78.5 1 2.38 1.49s3.95 1.14 3.95 3.85c0 2.38-1.42 3.99-4.64 3.99ZM73.62 15.45c-3.09 0-5.21-2.39-5.21-6.42s2.15-6.45 5.24-6.45S78.84 5 78.84 9s-2.14 6.45-5.22 6.45Zm0-10.39C72 5.06 70.85 6.47 70.85 9s1.15 4 2.8 4 2.76-1.44 2.76-4-1.15-3.94-2.81-3.94ZM86.56 15.45c-2.85 0-4.78-2-4.78-5.67v-7h2.37v7c0 2 .91 3.26 2.41 3.26S89 11.78 89 9.78v-7h2.36v7c0 3.58-1.79 5.67-4.8 5.67ZM102.49 15.25l-4.35-6.81c-.28-.46-.67-1.08-.82-1.4v8.21H95V2.78h2.26l4.19 6.59c.29.46.68 1.09.83 1.41v-8h2.33v12.47ZM111.86 15.25h-3.53V2.78H112c3.38 0 5.88 1.67 5.88 6.23.03 4.39-2.97 6.24-6.02 6.24Zm.09-10h-1.25v7.63h1.16c2.49 0 3.62-1.54 3.62-3.82 0-2.59-1.03-3.86-3.48-3.86ZM128.18 6.41A2.24 2.24 0 0 0 126 5.06c-1.78 0-2.79 1.64-2.79 4s1 4 2.81 4a2.46 2.46 0 0 0 2.31-1.59l2 1.25a4.51 4.51 0 0 1-4.33 2.73c-3.09 0-5.17-2.5-5.17-6.44s2.16-6.43 5.25-6.43a4.45 4.45 0 0 1 4.33 2.76ZM133.77 15.25V2.78h2.37v10h5.93v2.46ZM148.51 15.45c-3.09 0-5.21-2.39-5.21-6.42s2.15-6.45 5.24-6.45S153.73 5 153.73 9s-2.15 6.45-5.22 6.45Zm0-10.39c-1.65 0-2.75 1.41-2.75 3.94s1.15 4 2.8 4 2.74-1.44 2.74-4-1.15-3.94-2.81-3.94ZM161.45 15.45c-2.85 0-4.78-2-4.78-5.67v-7H159v7c0 2 .91 3.26 2.41 3.26s2.44-1.22 2.44-3.22v-7h2.36v7c.04 3.54-1.75 5.63-4.76 5.63ZM173.57 15.32H170V2.85h3.7c3.38 0 5.88 1.68 5.88 6.24.04 4.38-2.96 6.23-6.01 6.23Zm.09-10h-1.25v7.58h1.16c2.49 0 3.62-1.53 3.62-3.81 0-2.55-1.03-3.82-3.53-3.82Z"></path>
</svg>