<svg class="NavBar_IconDefaultColor__2SEUJ" height="32" viewBox="0 0 32 32"
  xmlns="http://www.w3.org/2000/svg" aria-hidden="false">
  <title>Library</title>
  <path
    d="M2.25 7a2.75 2.75 0 0 1 5.5 0v18a2.75 2.75 0 1 1-5.5 0V7ZM5 5.75c-.69 0-1.25.56-1.25 1.25v18a1.25 1.25 0 1 0 2.5 0V7c0-.69-.56-1.25-1.25-1.25ZM10.25 7a2.75 2.75 0 1 1 5.5 0v18a2.75 2.75 0 1 1-5.5 0V7ZM13 5.75c-.69 0-1.25.56-1.25 1.25v18a1.25 1.25 0 1 0 2.5 0V7c0-.69-.56-1.25-1.25-1.25ZM20.683 4.25a2.63 2.63 0 0 0-2.47 3.528l6.632 18.241a2.63 2.63 0 0 0 4.943-1.797L23.155 5.98a2.63 2.63 0 0 0-2.472-1.731Zm-1.061 3.016a1.13 1.13 0 1 1 2.123-.772l6.633 18.24a1.13 1.13 0 1 1-2.123.772l-6.633-18.24Z"
    fill="currentColor"></path>
</svg>