<svg class="NavBar_IconDefaultColor__2SEUJ" height="32" viewBox="0 0 32 32"
  xmlns="http://www.w3.org/2000/svg" aria-hidden="false">
  <title>Search</title>
  <path
    d="M13 3.25c-5.385 0-9.75 4.365-9.75 9.75s4.365 9.75 9.75 9.75a9.706 9.706 0 0 0 4.671-1.19l6.977 6.977a2.75 2.75 0 0 0 3.89-3.889l-6.978-6.977A9.706 9.706 0 0 0 22.75 13c0-5.385-4.365-9.75-9.75-9.75ZM4.75 13a8.25 8.25 0 1 1 16.5 0 8.25 8.25 0 0 1-16.5 0Zm15.972 5.954 6.755 6.755a1.25 1.25 0 1 1-1.768 1.768l-6.755-6.755a9.812 9.812 0 0 0 1.768-1.768Z"
    fill="currentColor"></path>
</svg>